<?xml version="1.0" encoding="UTF-8" standalone="no"?>
<!-- Created with Inkscape (http://www.inkscape.org/) -->

<svg
   width="210mm"
   height="297mm"
   viewBox="0 0 210 297"
   version="1.1"
   id="svg5"
   xml:space="preserve"
   inkscape:version="1.2 (1:1.2.1+202207142221+cd75a1ee6d)"
   sodipodi:docname="logo.svg"
   xmlns:inkscape="http://www.inkscape.org/namespaces/inkscape"
   xmlns:sodipodi="http://sodipodi.sourceforge.net/DTD/sodipodi-0.dtd"
   xmlns="http://www.w3.org/2000/svg"
   xmlns:svg="http://www.w3.org/2000/svg"><sodipodi:namedview
     id="namedview7"
     pagecolor="#505050"
     bordercolor="#eeeeee"
     borderopacity="1"
     inkscape:showpageshadow="0"
     inkscape:pageopacity="0"
     inkscape:pagecheckerboard="0"
     inkscape:deskcolor="#505050"
     inkscape:document-units="mm"
     showgrid="false"
     showguides="true"
     inkscape:zoom="0.35355339"
     inkscape:cx="459.61941"
     inkscape:cy="913.58196"
     inkscape:window-width="1920"
     inkscape:window-height="951"
     inkscape:window-x="0"
     inkscape:window-y="27"
     inkscape:window-maximized="1"
     inkscape:current-layer="layer1"><sodipodi:guide
       position="101.66124,261.95363"
       orientation="1,0"
       id="guide3199"
       inkscape:locked="false" /></sodipodi:namedview><defs
     id="defs2" /><g
     inkscape:label="Camada 1"
     inkscape:groupmode="layer"
     id="layer1"><rect
       style="fill:#e5e5e5;fill-opacity:1;stroke:#000000;stroke-width:0.176"
       id="rect234-3"
       width="200.21016"
       height="141.85564"
       x="2.3712339"
       y="2.1230969" /><path
       id="path3192-6"
       style="fill:none;fill-opacity:1;stroke:#212529;stroke-width:2;stroke-miterlimit:3.5;stroke-dasharray:none;stroke-opacity:1"
       d="M 134.63695,96.194463 A 46.261702,46.261702 0 0 0 144.74755,67.328497 46.261702,46.261702 0 0 0 98.485849,21.0668 46.261702,46.261702 0 0 0 52.224152,67.328497 v 0 a 46.261702,46.261702 0 0 0 10.1074,28.862006" /><text
       xml:space="preserve"
       style="font-style:normal;font-variant:normal;font-weight:normal;font-stretch:normal;font-size:11.2889px;font-family:Jost;-inkscape-font-specification:'Jost, Normal';font-variant-ligatures:normal;font-variant-caps:normal;font-variant-numeric:normal;font-variant-east-asian:normal;text-align:center;direction:rtl;text-anchor:middle;fill:#212529;fill-opacity:1;stroke:none;stroke-width:0.176;stroke-dasharray:none"
       x="99.153458"
       y="111.29552"
       id="text3337-1"><tspan
         sodipodi:role="line"
         id="tspan3335-2"
         style="font-style:normal;font-variant:normal;font-weight:normal;font-stretch:normal;font-size:11.2889px;font-family:Jost;-inkscape-font-specification:'Jost, Normal';font-variant-ligatures:normal;font-variant-caps:normal;font-variant-numeric:normal;font-variant-east-asian:normal;fill:#212529;fill-opacity:1;stroke:none;stroke-width:0.176;stroke-dasharray:none"
         x="99.153458"
         y="111.29552">PEDRO DENARI</tspan></text><text
       xml:space="preserve"
       style="font-style:normal;font-variant:normal;font-weight:normal;font-stretch:normal;font-size:11.2889px;font-family:Jost;-inkscape-font-specification:'Jost, Normal';font-variant-ligatures:normal;font-variant-caps:normal;font-variant-numeric:normal;font-variant-east-asian:normal;text-align:center;direction:rtl;text-anchor:middle;fill:#212529;fill-opacity:1;stroke:none;stroke-width:0.176;stroke-dasharray:none"
       x="99.014793"
       y="119.39537"
       id="text3337-8-9"><tspan
         sodipodi:role="line"
         id="tspan3335-9-3"
         style="font-style:normal;font-variant:normal;font-weight:normal;font-stretch:normal;font-size:5.64444px;font-family:Jost;-inkscape-font-specification:'Jost, Normal';font-variant-ligatures:normal;font-variant-caps:normal;font-variant-numeric:normal;font-variant-east-asian:normal;fill:#212529;fill-opacity:1;stroke:none;stroke-width:0.176;stroke-dasharray:none"
         x="99.014793"
         y="119.39537">ENGENHARIA CIVIL</tspan></text><path
       id="path3536-1"
       style="fill:#212529;stroke-width:0.252716;fill-opacity:1"
       d="m 88.343952,31.991572 c -9.5054,-0.0035 -10.8625,0.04532 -11.2045,0.401526 -0.3493,0.36405 -0.3891,3.619704 -0.3891,31.982027 v 31.322118 h 2.2283 v -0.90537 -1.160652 h 4.7051 4.7047 v -1.160653 -1.160653 h -4.7047 -4.7051 V 89.117284 86.92517 h 4.7051 4.7047 V 85.893192 84.86173 h -4.7047 -4.7051 v -2.192631 -2.192114 h 4.7051 4.7047 v -1.160653 -1.160653 h -4.7047 -4.7051 v -2.192114 -2.192631 h 4.7051 4.7047 v -1.031461 -1.031979 h -4.7047 -4.7051 v -2.321305 -2.321305 h 4.7051 4.7047 V 66.033422 65.00196 h -4.7047 -4.7051 v -2.192631 -2.192114 h 4.7051 4.7047 V 59.456562 58.29591 h -4.7047 -4.7051 v -2.192631 -2.192114 h 4.7051 4.7047 v -1.031979 -1.031461 h -4.7047 -4.7051 V 49.65561 47.462979 h 4.7051 4.7047 v -1.160652 -1.160653 h -4.7047 -4.7051 V 42.94956 40.756929 h 4.7051 4.7047 v -1.031462 -1.031462 h -4.7047 -4.7051 V 36.3727 34.051395 h 9.4098 9.409197 V 65.00196 95.697243 h 2.228301 v -0.90537 -1.160652 h 3.7285 3.7284 l -0.076,-1.096057 -0.076,-1.096574 -3.6525,-0.07131 -3.6525,-0.07131 V 89.110566 86.92517 h 3.7145 3.714 V 85.893192 84.86173 h -3.714 -3.7145 v -2.192114 -2.192631 h 3.7145 3.714 v -1.160653 -1.160653 h -3.714 -3.7145 v -2.192114 -2.192631 h 3.7145 3.714 v -1.031461 -1.031979 h -3.714 -3.7145 V 69.386189 67.0654 h 3.7145 3.714 V 66.033422 65.00196 h -3.714 -3.7145 v -2.192631 -2.192114 h 3.7285 3.7284 l -0.076,-1.096057 -0.076,-1.096574 -3.6525,-0.07131 -3.6519,-0.07131 v -2.185396 -2.185396 h 3.714 3.7145 v -1.031979 -1.031461 h -3.7145 -3.714 v -2.043287 -2.043802 l 1.6712,0.494543 c 0.9192,0.27183 3.7329,1.108441 6.2523,1.859318 l 4.5806,1.365291 0.064,22.236369 0.062,21.981089 h 2.2262 v -0.90537 -1.160655 h 1.4857 1.4857 v -1.160653 -1.160653 h -1.4857 -1.4857 V 89.117284 86.92517 h 1.4857 1.4857 V 85.893192 84.86173 h -1.4857 -1.4857 v -2.192631 -2.192114 h 1.4857 1.4857 v -1.160653 -1.160653 h -1.4857 -1.4857 v -2.192114 -2.192631 h 1.4857 1.4857 v -1.031461 -1.031979 h -1.4857 -1.4857 v -2.321305 -2.321305 h 1.4857 1.4857 V 66.033422 65.00196 h -1.4857 -1.4857 V 62.036767 59.07209 l 3.0955,1.606103 3.0949,1.605587 v 16.834115 16.579348 h 2.2288 V 78.783548 c 0,-9.84063 -0.096,-17.35407 -0.2259,-17.60306 -0.124,-0.23893 -2.0184,-1.360014 -4.2095,-2.491321 l -3.9838,-2.057238 v -2.987415 c 0,-2.120804 -0.098,-3.127999 -0.3384,-3.470589 -0.2383,-0.33934 -2.4252,-1.103016 -7.3665,-2.572453 l -7.028,-2.089795 -0.124,-6.513814 c -0.102901,-5.411285 -0.186501,-6.554857 -0.495101,-6.757727 -0.2188,-0.14388 -4.8152,-0.246564 -11.186897,-0.248564 z" /><rect
       style="fill:#212529;fill-opacity:1;stroke:none;stroke-width:1.23297;stroke-dasharray:none"
       id="rect3590-7-4"
       width="54.815712"
       height="0.41339788"
       x="71.736473"
       y="113.16415" /><rect
       style="fill:#546a7b;fill-opacity:1;stroke:#213343;stroke-width:0.176;stroke-opacity:1"
       id="rect234-3-8"
       width="200.21016"
       height="141.85564"
       x="214.4256"
       y="2.0899484" /><path
       id="path3192-6-4"
       style="fill:none;fill-opacity:1;stroke:#ffffff;stroke-width:2;stroke-miterlimit:3.5;stroke-dasharray:none;stroke-opacity:1"
       d="M 346.69131,96.161309 A 46.261702,46.261702 0 0 0 356.80191,67.295349 46.261702,46.261702 0 0 0 310.5402,21.03365 46.261702,46.261702 0 0 0 264.27851,67.295349 v 0 a 46.261702,46.261702 0 0 0 10.1074,28.862" /><text
       xml:space="preserve"
       style="font-style:normal;font-variant:normal;font-weight:normal;font-stretch:normal;font-size:11.2889px;font-family:Jost;-inkscape-font-specification:'Jost, Normal';font-variant-ligatures:normal;font-variant-caps:normal;font-variant-numeric:normal;font-variant-east-asian:normal;text-align:center;direction:rtl;text-anchor:middle;fill:#ffffff;fill-opacity:1;stroke:none;stroke-width:0.176;stroke-dasharray:none"
       x="311.20782"
       y="111.26237"
       id="text3337-1-5"><tspan
         sodipodi:role="line"
         id="tspan3335-2-0"
         style="font-style:normal;font-variant:normal;font-weight:normal;font-stretch:normal;font-size:11.2889px;font-family:Jost;-inkscape-font-specification:'Jost, Normal';font-variant-ligatures:normal;font-variant-caps:normal;font-variant-numeric:normal;font-variant-east-asian:normal;fill:#ffffff;fill-opacity:1;stroke:none;stroke-width:0.176;stroke-dasharray:none"
         x="311.20782"
         y="111.26237">PEDRO DENARI</tspan></text><text
       xml:space="preserve"
       style="font-style:normal;font-variant:normal;font-weight:normal;font-stretch:normal;font-size:11.2889px;font-family:Jost;-inkscape-font-specification:'Jost, Normal';font-variant-ligatures:normal;font-variant-caps:normal;font-variant-numeric:normal;font-variant-east-asian:normal;text-align:center;direction:rtl;text-anchor:middle;fill:#ffffff;fill-opacity:1;stroke:none;stroke-width:0.176;stroke-dasharray:none"
       x="311.06915"
       y="119.36222"
       id="text3337-8-9-3"><tspan
         sodipodi:role="line"
         id="tspan3335-9-3-6"
         style="font-style:normal;font-variant:normal;font-weight:normal;font-stretch:normal;font-size:5.64444px;font-family:Jost;-inkscape-font-specification:'Jost, Normal';font-variant-ligatures:normal;font-variant-caps:normal;font-variant-numeric:normal;font-variant-east-asian:normal;fill:#ffffff;fill-opacity:1;stroke:none;stroke-width:0.176;stroke-dasharray:none"
         x="311.06915"
         y="119.36222">ENGENHARIA CIVIL</tspan></text><path
       id="path3536-1-1"
       style="fill:#ffffff;stroke-width:0.252716;fill-opacity:1"
       d="m 300.39831,31.958422 c -9.5054,-0.0035 -10.8625,0.04532 -11.2045,0.401526 -0.3493,0.36405 -0.3891,3.619704 -0.3891,31.982031 v 31.32211 h 2.2283 v -0.90537 -1.16065 h 4.7051 4.7047 v -1.16065 -1.16065 h -4.7047 -4.7051 v -2.19264 -2.19211 h 4.7051 4.7047 v -1.03198 -1.03146 h -4.7047 -4.7051 v -2.19263 -2.19211 h 4.7051 4.7047 v -1.16066 -1.16065 h -4.7047 -4.7051 v -2.19211 -2.19264 h 4.7051 4.7047 v -1.03146 -1.03198 h -4.7047 -4.7051 v -2.3213 -2.32131 h 4.7051 4.7047 v -1.03146 -1.03146 h -4.7047 -4.7051 v -2.19263 -2.19211 h 4.7051 4.7047 v -1.16066 -1.16065 h -4.7047 -4.7051 v -2.19263 -2.192114 h 4.7051 4.7047 v -1.031979 -1.031461 h -4.7047 -4.7051 V 49.62246 47.429829 h 4.7051 4.7047 v -1.160652 -1.160653 h -4.7047 -4.7051 V 42.91641 40.723779 h 4.7051 4.7047 v -1.031462 -1.031462 h -4.7047 -4.7051 V 36.33955 34.018245 h 9.4098 9.4092 v 30.950564 30.69528 h 2.2283 v -0.90537 -1.16065 h 3.7285 3.7284 l -0.076,-1.09606 -0.076,-1.09657 -3.6525,-0.0713 -3.6525,-0.0713 v -2.1854 -2.1854 h 3.7145 3.714 v -1.03198 -1.03146 h -3.714 -3.7145 v -2.19211 -2.19263 h 3.7145 3.714 v -1.16066 -1.16065 h -3.714 -3.7145 v -2.19211 -2.19264 h 3.7145 3.714 v -1.03146 -1.03198 h -3.714 -3.7145 v -2.3213 -2.32079 h 3.7145 3.714 v -1.03198 -1.03146 h -3.714 -3.7145 v -2.19263 -2.19211 h 3.7285 3.7284 l -0.076,-1.09606 -0.076,-1.09657 -3.6525,-0.0713 -3.6519,-0.0713 v -2.185401 -2.185396 h 3.714 3.7145 v -1.031979 -1.031461 h -3.7145 -3.714 v -2.043287 -2.043802 l 1.6712,0.494543 c 0.9192,0.27183 3.7329,1.108441 6.2523,1.859318 l 4.5806,1.365291 0.064,22.236374 0.062,21.98108 h 2.2262 v -0.90537 -1.16065 h 1.4857 1.4857 v -1.16065 -1.16066 h -1.4857 -1.4857 v -2.19264 -2.19211 h 1.4857 1.4857 v -1.03198 -1.03146 h -1.4857 -1.4857 v -2.19263 -2.19211 h 1.4857 1.4857 v -1.16066 -1.16065 h -1.4857 -1.4857 v -2.19211 -2.19264 h 1.4857 1.4857 v -1.03146 -1.03198 h -1.4857 -1.4857 v -2.3213 -2.32131 h 1.4857 1.4857 v -1.03146 -1.03146 h -1.4857 -1.4857 v -2.96519 -2.96468 l 3.0955,1.6061 3.0949,1.60559 v 16.83412 16.57934 h 2.2288 v -16.91373 c 0,-9.84063 -0.096,-17.35407 -0.2259,-17.60306 -0.124,-0.23893 -2.0184,-1.36001 -4.2095,-2.49132 l -3.9838,-2.05724 v -2.987415 c 0,-2.120804 -0.098,-3.127999 -0.3384,-3.470589 -0.2383,-0.33934 -2.4252,-1.103016 -7.3665,-2.572453 l -7.028,-2.089795 -0.124,-6.513814 c -0.1029,-5.411285 -0.1865,-6.554857 -0.4951,-6.757727 -0.2188,-0.14388 -4.8152,-0.246564 -11.1869,-0.248564 z" /><rect
       style="fill:#ffffff;fill-opacity:1;stroke:none;stroke-width:1.23297;stroke-dasharray:none"
       id="rect3590-7-4-0"
       width="54.815712"
       height="0.41339788"
       x="283.79083"
       y="113.13099" /><rect
       style="fill:#213343;fill-opacity:1;stroke:#213343;stroke-width:0.176;stroke-opacity:1"
       id="rect234-3-8-6"
       width="200.21016"
       height="141.85564"
       x="213.57097"
       y="152.94011" /><path
       id="path3192-6-4-3"
       style="fill:none;fill-opacity:1;stroke:#ffffff;stroke-width:2;stroke-miterlimit:3.5;stroke-dasharray:none;stroke-opacity:1"
       d="m 345.83667,247.01146 a 46.261702,46.261702 0 0 0 10.1106,-28.86596 46.261702,46.261702 0 0 0 -46.26171,-46.26169 46.261702,46.261702 0 0 0 -46.26169,46.26169 v 0 a 46.261702,46.261702 0 0 0 10.1074,28.862" /><text
       xml:space="preserve"
       style="font-style:normal;font-variant:normal;font-weight:normal;font-stretch:normal;font-size:11.2889px;font-family:Jost;-inkscape-font-specification:'Jost, Normal';font-variant-ligatures:normal;font-variant-caps:normal;font-variant-numeric:normal;font-variant-east-asian:normal;text-align:center;direction:rtl;text-anchor:middle;fill:#ffffff;fill-opacity:1;stroke:none;stroke-width:0.176;stroke-dasharray:none"
       x="310.35318"
       y="262.11252"
       id="text3337-1-5-2"><tspan
         sodipodi:role="line"
         id="tspan3335-2-0-0"
         style="font-style:normal;font-variant:normal;font-weight:normal;font-stretch:normal;font-size:11.2889px;font-family:Jost;-inkscape-font-specification:'Jost, Normal';font-variant-ligatures:normal;font-variant-caps:normal;font-variant-numeric:normal;font-variant-east-asian:normal;fill:#ffffff;fill-opacity:1;stroke:none;stroke-width:0.176;stroke-dasharray:none"
         x="310.35318"
         y="262.11252">PEDRO DENARI</tspan></text><text
       xml:space="preserve"
       style="font-style:normal;font-variant:normal;font-weight:normal;font-stretch:normal;font-size:11.2889px;font-family:Jost;-inkscape-font-specification:'Jost, Normal';font-variant-ligatures:normal;font-variant-caps:normal;font-variant-numeric:normal;font-variant-east-asian:normal;text-align:center;direction:rtl;text-anchor:middle;fill:#ffffff;fill-opacity:1;stroke:none;stroke-width:0.176;stroke-dasharray:none"
       x="310.21451"
       y="270.21237"
       id="text3337-8-9-3-6"><tspan
         sodipodi:role="line"
         id="tspan3335-9-3-6-1"
         style="font-style:normal;font-variant:normal;font-weight:normal;font-stretch:normal;font-size:5.64444px;font-family:Jost;-inkscape-font-specification:'Jost, Normal';font-variant-ligatures:normal;font-variant-caps:normal;font-variant-numeric:normal;font-variant-east-asian:normal;fill:#ffffff;fill-opacity:1;stroke:none;stroke-width:0.176;stroke-dasharray:none"
         x="310.21451"
         y="270.21237">ENGENHARIA CIVIL</tspan></text><path
       id="path3536-1-1-5"
       style="fill:#ffffff;fill-opacity:1;stroke-width:0.252716"
       d="m 299.54367,182.80857 c -9.5054,-0.004 -10.8625,0.0453 -11.2045,0.40153 -0.3493,0.36405 -0.3891,3.6197 -0.3891,31.98203 v 31.32211 h 2.2283 v -0.90537 -1.16065 h 4.7051 4.7047 v -1.16065 -1.16065 h -4.7047 -4.7051 v -2.19264 -2.19211 h 4.7051 4.7047 v -1.03198 -1.03146 h -4.7047 -4.7051 v -2.19263 -2.19211 h 4.7051 4.7047 v -1.16066 -1.16065 h -4.7047 -4.7051 v -2.19211 -2.19264 h 4.7051 4.7047 v -1.03146 -1.03198 h -4.7047 -4.7051 v -2.3213 -2.32131 h 4.7051 4.7047 v -1.03146 -1.03146 h -4.7047 -4.7051 v -2.19263 -2.19211 h 4.7051 4.7047 v -1.16066 -1.16065 h -4.7047 -4.7051 v -2.19263 -2.19211 h 4.7051 4.7047 v -1.03198 -1.03146 h -4.7047 -4.7051 v -2.19212 -2.19263 h 4.7051 4.7047 v -1.16065 -1.16065 h -4.7047 -4.7051 v -2.19212 -2.19263 h 4.7051 4.7047 v -1.03146 -1.03146 h -4.7047 -4.7051 v -2.32131 -2.3213 h 9.4098 9.4092 v 30.95056 30.69528 h 2.2283 v -0.90537 -1.16065 h 3.7285 3.7284 l -0.076,-1.09606 -0.076,-1.09657 -3.6525,-0.0713 -3.6525,-0.0713 v -2.1854 -2.1854 h 3.7145 3.714 v -1.03198 -1.03146 h -3.714 -3.7145 v -2.19211 -2.19263 h 3.7145 3.714 v -1.16066 -1.16065 h -3.714 -3.7145 v -2.19211 -2.19264 h 3.7145 3.714 v -1.03146 -1.03198 h -3.714 -3.7145 v -2.3213 -2.32079 h 3.7145 3.714 v -1.03198 -1.03146 h -3.714 -3.7145 v -2.19263 -2.19211 h 3.7285 3.7284 l -0.076,-1.09606 -0.076,-1.09657 -3.6525,-0.0713 -3.6519,-0.0713 v -2.1854 -2.1854 h 3.714 3.7145 v -1.03197 -1.03147 h -3.7145 -3.714 v -2.04328 -2.0438 l 1.6712,0.49454 c 0.9192,0.27183 3.7329,1.10844 6.2523,1.85932 l 4.5806,1.36529 0.064,22.23637 0.062,21.98108 h 2.2262 v -0.90537 -1.16065 h 1.4857 1.4857 v -1.16065 -1.16066 h -1.4857 -1.4857 v -2.19264 -2.19211 h 1.4857 1.4857 v -1.03198 -1.03146 h -1.4857 -1.4857 v -2.19263 -2.19211 h 1.4857 1.4857 v -1.16066 -1.16065 h -1.4857 -1.4857 v -2.19211 -2.19264 h 1.4857 1.4857 v -1.03146 -1.03198 h -1.4857 -1.4857 v -2.3213 -2.32131 h 1.4857 1.4857 v -1.03146 -1.03146 h -1.4857 -1.4857 v -2.96519 -2.96468 l 3.0955,1.6061 3.0949,1.60559 v 16.83412 16.57934 h 2.2288 v -16.91373 c 0,-9.84063 -0.096,-17.35407 -0.2259,-17.60306 -0.124,-0.23893 -2.0184,-1.36001 -4.2095,-2.49132 l -3.9838,-2.05724 v -2.98741 c 0,-2.12081 -0.098,-3.128 -0.3384,-3.47059 -0.2383,-0.33934 -2.4252,-1.10302 -7.3665,-2.57245 l -7.028,-2.0898 -0.124,-6.51381 c -0.1029,-5.41129 -0.1865,-6.55486 -0.4951,-6.75773 -0.2188,-0.14388 -4.8152,-0.24656 -11.1869,-0.24856 z" /><rect
       style="fill:#ffffff;fill-opacity:1;stroke:none;stroke-width:1.23297;stroke-dasharray:none"
       id="rect3590-7-4-0-5"
       width="54.815712"
       height="0.41339788"
       x="282.93619"
       y="263.98114" /><rect
       style="fill:#212529;fill-opacity:1;stroke:#213343;stroke-width:0.176;stroke-opacity:1"
       id="rect234-3-8-6-4"
       width="200.21016"
       height="141.85564"
       x="4.8516035"
       y="151.58014" /><path
       id="path3192-6-4-3-7"
       style="fill:none;fill-opacity:1;stroke:#ffdb58;stroke-width:2;stroke-miterlimit:3.5;stroke-dasharray:none;stroke-opacity:1"
       d="m 137.11732,245.65149 a 46.261702,46.261702 0 0 0 10.1106,-28.86596 46.261702,46.261702 0 0 0 -46.26171,-46.26169 46.261702,46.261702 0 0 0 -46.261695,46.26169 v 0 a 46.261702,46.261702 0 0 0 10.1074,28.862" /><text
       xml:space="preserve"
       style="font-style:normal;font-variant:normal;font-weight:normal;font-stretch:normal;font-size:11.2889px;font-family:Jost;-inkscape-font-specification:'Jost, Normal';font-variant-ligatures:normal;font-variant-caps:normal;font-variant-numeric:normal;font-variant-east-asian:normal;text-align:center;direction:rtl;text-anchor:middle;fill:#ffdb58;fill-opacity:1;stroke:none;stroke-width:0.176;stroke-dasharray:none"
       x="101.63381"
       y="260.75253"
       id="text3337-1-5-2-6"><tspan
         sodipodi:role="line"
         id="tspan3335-2-0-0-5"
         style="font-style:normal;font-variant:normal;font-weight:normal;font-stretch:normal;font-size:11.2889px;font-family:Jost;-inkscape-font-specification:'Jost, Normal';font-variant-ligatures:normal;font-variant-caps:normal;font-variant-numeric:normal;font-variant-east-asian:normal;fill:#ffdb58;fill-opacity:1;stroke:none;stroke-width:0.176;stroke-dasharray:none"
         x="101.63381"
         y="260.75253">PEDRO DENARI</tspan></text><text
       xml:space="preserve"
       style="font-style:normal;font-variant:normal;font-weight:normal;font-stretch:normal;font-size:11.2889px;font-family:Jost;-inkscape-font-specification:'Jost, Normal';font-variant-ligatures:normal;font-variant-caps:normal;font-variant-numeric:normal;font-variant-east-asian:normal;text-align:center;direction:rtl;text-anchor:middle;fill:#ffdb58;fill-opacity:1;stroke:none;stroke-width:0.176;stroke-dasharray:none"
       x="101.49514"
       y="268.85239"
       id="text3337-8-9-3-6-6"><tspan
         sodipodi:role="line"
         id="tspan3335-9-3-6-1-9"
         style="font-style:normal;font-variant:normal;font-weight:normal;font-stretch:normal;font-size:5.64444px;font-family:Jost;-inkscape-font-specification:'Jost, Normal';font-variant-ligatures:normal;font-variant-caps:normal;font-variant-numeric:normal;font-variant-east-asian:normal;fill:#ffdb58;fill-opacity:1;stroke:none;stroke-width:0.176;stroke-dasharray:none"
         x="101.49514"
         y="268.85239">ENGENHARIA CIVIL</tspan></text><path
       id="path3536-1-1-5-3"
       style="fill:#ffdb58;fill-opacity:1;stroke-width:0.252716"
       d="m 90.824315,181.4486 c -9.5054,-0.004 -10.8625,0.0453 -11.2045,0.40153 -0.3493,0.36405 -0.3891,3.6197 -0.3891,31.98203 v 31.32211 h 2.2283 v -0.90537 -1.16065 h 4.7051 4.7047 v -1.16065 -1.16065 h -4.7047 -4.7051 v -2.19264 -2.19211 h 4.7051 4.7047 v -1.03198 -1.03146 h -4.7047 -4.7051 v -2.19263 -2.19211 h 4.7051 4.7047 v -1.16066 -1.16065 h -4.7047 -4.7051 v -2.19211 -2.19264 h 4.7051 4.7047 v -1.03146 -1.03198 h -4.7047 -4.7051 v -2.3213 -2.32131 h 4.7051 4.7047 v -1.03146 -1.03146 h -4.7047 -4.7051 v -2.19263 -2.19211 h 4.7051 4.7047 v -1.16066 -1.16065 h -4.7047 -4.7051 v -2.19263 -2.19211 h 4.7051 4.7047 v -1.03198 -1.03146 h -4.7047 -4.7051 v -2.19212 -2.19263 h 4.7051 4.7047 v -1.16065 -1.16065 h -4.7047 -4.7051 v -2.19212 -2.19263 h 4.7051 4.7047 v -1.03146 -1.03146 h -4.7047 -4.7051 v -2.32131 -2.3213 h 9.4098 9.409205 v 30.95056 30.69528 h 2.2283 v -0.90537 -1.16065 h 3.7285 3.7284 l -0.076,-1.09606 -0.076,-1.09657 -3.6525,-0.0713 -3.6525,-0.0713 v -2.1854 -2.1854 h 3.7145 3.714 v -1.03198 -1.03146 h -3.714 -3.7145 v -2.19211 -2.19263 h 3.7145 3.714 v -1.16066 -1.16065 h -3.714 -3.7145 v -2.19211 -2.19264 h 3.7145 3.714 v -1.03146 -1.03198 h -3.714 -3.7145 v -2.3213 -2.32079 h 3.7145 3.714 v -1.03198 -1.03146 h -3.714 -3.7145 v -2.19263 -2.19211 h 3.7285 3.7284 l -0.076,-1.09606 -0.076,-1.09657 -3.6525,-0.0713 -3.6519,-0.0713 v -2.1854 -2.1854 h 3.714 3.7145 v -1.03197 -1.03147 h -3.7145 -3.714 v -2.04328 -2.0438 l 1.6712,0.49454 c 0.9192,0.27183 3.7329,1.10844 6.2523,1.85932 l 4.5806,1.36529 0.064,22.23637 0.062,21.98108 h 2.2262 v -0.90537 -1.16065 h 1.4857 1.4857 v -1.16065 -1.16066 h -1.4857 -1.4857 v -2.19264 -2.19211 h 1.4857 1.4857 v -1.03198 -1.03146 h -1.4857 -1.4857 v -2.19263 -2.19211 h 1.4857 1.4857 v -1.16066 -1.16065 h -1.4857 -1.4857 v -2.19211 -2.19264 h 1.4857 1.4857 v -1.03146 -1.03198 h -1.4857 -1.4857 v -2.3213 -2.32131 h 1.4857 1.4857 v -1.03146 -1.03146 h -1.4857 -1.4857 v -2.96519 -2.96468 l 3.0955,1.6061 3.0949,1.60559 v 16.83412 16.57934 h 2.2288 v -16.91373 c 0,-9.84063 -0.096,-17.35407 -0.2259,-17.60306 -0.124,-0.23893 -2.0184,-1.36001 -4.2095,-2.49132 l -3.9838,-2.05724 v -2.98741 c 0,-2.12081 -0.098,-3.128 -0.3384,-3.47059 -0.2383,-0.33934 -2.4252,-1.10302 -7.3665,-2.57245 l -7.028,-2.0898 -0.124,-6.51381 c -0.1029,-5.41129 -0.1865,-6.55486 -0.4951,-6.75773 -0.2188,-0.14388 -4.815205,-0.24656 -11.186905,-0.24856 z" /><rect
       style="fill:#ffdb58;fill-opacity:1;stroke:none;stroke-width:1.23297;stroke-dasharray:none"
       id="rect3590-7-4-0-5-7"
       width="54.815712"
       height="0.41339788"
       x="74.21682"
       y="262.62115" /><rect
       style="fill:#212529;fill-opacity:1;stroke:#213343;stroke-width:0.176;stroke-opacity:1"
       id="rect234-3-8-6-4-3"
       width="200.21016"
       height="141.85564"
       x="214.78986"
       y="307.8501" /><path
       id="path3192-6-4-3-7-0"
       style="fill:none;fill-opacity:1;stroke:#e5e5e5;stroke-width:2;stroke-miterlimit:3.5;stroke-dasharray:none;stroke-opacity:1"
       d="m 347.05557,401.92144 a 46.261702,46.261702 0 0 0 10.1106,-28.86596 46.261702,46.261702 0 0 0 -46.26171,-46.26169 46.261702,46.261702 0 0 0 -46.26169,46.26169 v 0 a 46.261702,46.261702 0 0 0 10.1074,28.862" /><text
       xml:space="preserve"
       style="font-style:normal;font-variant:normal;font-weight:normal;font-stretch:normal;font-size:11.2889px;font-family:Jost;-inkscape-font-specification:'Jost, Normal';font-variant-ligatures:normal;font-variant-caps:normal;font-variant-numeric:normal;font-variant-east-asian:normal;text-align:center;direction:rtl;text-anchor:middle;fill:#e5e5e5;fill-opacity:1;stroke:none;stroke-width:0.176;stroke-dasharray:none"
       x="311.57208"
       y="417.02246"
       id="text3337-1-5-2-6-7"><tspan
         sodipodi:role="line"
         id="tspan3335-2-0-0-5-8"
         style="font-style:normal;font-variant:normal;font-weight:normal;font-stretch:normal;font-size:11.2889px;font-family:Jost;-inkscape-font-specification:'Jost, Normal';font-variant-ligatures:normal;font-variant-caps:normal;font-variant-numeric:normal;font-variant-east-asian:normal;fill:#e5e5e5;fill-opacity:1;stroke:none;stroke-width:0.176;stroke-dasharray:none"
         x="311.57208"
         y="417.02246">PEDRO DENARI</tspan></text><text
       xml:space="preserve"
       style="font-style:normal;font-variant:normal;font-weight:normal;font-stretch:normal;font-size:11.2889px;font-family:Jost;-inkscape-font-specification:'Jost, Normal';font-variant-ligatures:normal;font-variant-caps:normal;font-variant-numeric:normal;font-variant-east-asian:normal;text-align:center;direction:rtl;text-anchor:middle;fill:#e5e5e5;fill-opacity:1;stroke:none;stroke-width:0.176;stroke-dasharray:none"
       x="311.43341"
       y="425.12231"
       id="text3337-8-9-3-6-6-6"><tspan
         sodipodi:role="line"
         id="tspan3335-9-3-6-1-9-8"
         style="font-style:normal;font-variant:normal;font-weight:normal;font-stretch:normal;font-size:5.64444px;font-family:Jost;-inkscape-font-specification:'Jost, Normal';font-variant-ligatures:normal;font-variant-caps:normal;font-variant-numeric:normal;font-variant-east-asian:normal;fill:#e5e5e5;fill-opacity:1;stroke:none;stroke-width:0.176;stroke-dasharray:none"
         x="311.43341"
         y="425.12231">ENGENHARIA CIVIL</tspan></text><path
       id="path3536-1-1-5-3-8"
       style="fill:#e5e5e5;fill-opacity:1;stroke-width:0.252716"
       d="m 300.76257,337.71855 c -9.5054,-0.004 -10.8625,0.0453 -11.2045,0.40153 -0.3493,0.36405 -0.3891,3.6197 -0.3891,31.98203 v 31.32211 h 2.2283 v -0.90537 -1.16065 h 4.7051 4.7047 v -1.16065 -1.16065 h -4.7047 -4.7051 v -2.19264 -2.19211 h 4.7051 4.7047 v -1.03198 -1.03146 h -4.7047 -4.7051 v -2.19263 -2.19211 h 4.7051 4.7047 v -1.16066 -1.16065 h -4.7047 -4.7051 v -2.19211 -2.19264 h 4.7051 4.7047 v -1.03146 -1.03198 h -4.7047 -4.7051 v -2.3213 -2.32131 h 4.7051 4.7047 v -1.03146 -1.03146 h -4.7047 -4.7051 v -2.19263 -2.19211 h 4.7051 4.7047 v -1.16066 -1.16065 h -4.7047 -4.7051 v -2.19263 -2.19211 h 4.7051 4.7047 v -1.03198 -1.03146 h -4.7047 -4.7051 v -2.19212 -2.19263 h 4.7051 4.7047 v -1.16065 -1.16065 h -4.7047 -4.7051 v -2.19212 -2.19263 h 4.7051 4.7047 v -1.03146 -1.03146 h -4.7047 -4.7051 v -2.32131 -2.3213 h 9.4098 9.4092 v 30.95056 30.69528 h 2.2283 v -0.90537 -1.16065 h 3.7285 3.7284 l -0.076,-1.09606 -0.076,-1.09657 -3.6525,-0.0713 -3.6525,-0.0713 v -2.1854 -2.1854 h 3.7145 3.714 v -1.03198 -1.03146 h -3.714 -3.7145 v -2.19211 -2.19263 h 3.7145 3.714 v -1.16066 -1.16065 h -3.714 -3.7145 v -2.19211 -2.19264 h 3.7145 3.714 v -1.03146 -1.03198 h -3.714 -3.7145 v -2.3213 -2.32079 h 3.7145 3.714 v -1.03198 -1.03146 h -3.714 -3.7145 v -2.19263 -2.19211 h 3.7285 3.7284 l -0.076,-1.09606 -0.076,-1.09657 -3.6525,-0.0713 -3.6519,-0.0713 v -2.1854 -2.1854 h 3.714 3.7145 v -1.03197 -1.03147 h -3.7145 -3.714 v -2.04328 -2.0438 l 1.6712,0.49454 c 0.9192,0.27183 3.7329,1.10844 6.2523,1.85932 l 4.5806,1.36529 0.064,22.23637 0.062,21.98108 h 2.2262 v -0.90537 -1.16065 h 1.4857 1.4857 v -1.16065 -1.16066 h -1.4857 -1.4857 v -2.19264 -2.19211 h 1.4857 1.4857 v -1.03198 -1.03146 h -1.4857 -1.4857 v -2.19263 -2.19211 h 1.4857 1.4857 v -1.16066 -1.16065 h -1.4857 -1.4857 v -2.19211 -2.19264 h 1.4857 1.4857 v -1.03146 -1.03198 h -1.4857 -1.4857 v -2.3213 -2.32131 h 1.4857 1.4857 v -1.03146 -1.03146 h -1.4857 -1.4857 v -2.96519 -2.96468 l 3.0955,1.6061 3.0949,1.60559 v 16.83412 16.57934 h 2.2288 v -16.91373 c 0,-9.84063 -0.096,-17.35407 -0.2259,-17.60306 -0.124,-0.23893 -2.0184,-1.36001 -4.2095,-2.49132 l -3.9838,-2.05724 v -2.98741 c 0,-2.12081 -0.098,-3.128 -0.3384,-3.47059 -0.2383,-0.33934 -2.4252,-1.10302 -7.3665,-2.57245 l -7.028,-2.0898 -0.124,-6.51381 c -0.1029,-5.41129 -0.1865,-6.55486 -0.4951,-6.75773 -0.2188,-0.14388 -4.8152,-0.24656 -11.1869,-0.24856 z" /><rect
       style="fill:#e5e5e5;fill-opacity:1;stroke:none;stroke-width:1.23297;stroke-dasharray:none"
       id="rect3590-7-4-0-5-7-43"
       width="54.815712"
       height="0.41339788"
       x="284.15509"
       y="418.89108" /><rect
       style="fill:#213343;fill-opacity:1;stroke:#213343;stroke-width:0.176;stroke-opacity:1"
       id="rect234-3-8-6-4-4"
       width="200.21016"
       height="141.85564"
       x="2.9158728"
       y="307.065" /><path
       id="path3192-6-4-3-7-5"
       style="fill:none;fill-opacity:1;stroke:#ffdb58;stroke-width:2;stroke-miterlimit:3.5;stroke-dasharray:none;stroke-opacity:1"
       d="m 135.18158,401.13636 a 46.261702,46.261702 0 0 0 10.11061,-28.86596 46.261702,46.261702 0 0 0 -46.261707,-46.26169 46.261702,46.261702 0 0 0 -46.2617,46.26169 v 0 a 46.261702,46.261702 0 0 0 10.1074,28.862" /><text
       xml:space="preserve"
       style="font-style:normal;font-variant:normal;font-weight:normal;font-stretch:normal;font-size:11.2889px;font-family:Jost;-inkscape-font-specification:'Jost, Normal';font-variant-ligatures:normal;font-variant-caps:normal;font-variant-numeric:normal;font-variant-east-asian:normal;text-align:center;direction:rtl;text-anchor:middle;fill:#ffdb58;fill-opacity:1;stroke:none;stroke-width:0.176;stroke-dasharray:none"
       x="99.698082"
       y="416.2374"
       id="text3337-1-5-2-6-2"><tspan
         sodipodi:role="line"
         id="tspan3335-2-0-0-5-5"
         style="font-style:normal;font-variant:normal;font-weight:normal;font-stretch:normal;font-size:11.2889px;font-family:Jost;-inkscape-font-specification:'Jost, Normal';font-variant-ligatures:normal;font-variant-caps:normal;font-variant-numeric:normal;font-variant-east-asian:normal;fill:#ffdb58;fill-opacity:1;stroke:none;stroke-width:0.176;stroke-dasharray:none"
         x="99.698082"
         y="416.2374">PEDRO DENARI</tspan></text><text
       xml:space="preserve"
       style="font-style:normal;font-variant:normal;font-weight:normal;font-stretch:normal;font-size:11.2889px;font-family:Jost;-inkscape-font-specification:'Jost, Normal';font-variant-ligatures:normal;font-variant-caps:normal;font-variant-numeric:normal;font-variant-east-asian:normal;text-align:center;direction:rtl;text-anchor:middle;fill:#ffdb58;fill-opacity:1;stroke:none;stroke-width:0.176;stroke-dasharray:none"
       x="99.55941"
       y="424.33725"
       id="text3337-8-9-3-6-6-4"><tspan
         sodipodi:role="line"
         id="tspan3335-9-3-6-1-9-7"
         style="font-style:normal;font-variant:normal;font-weight:normal;font-stretch:normal;font-size:5.64444px;font-family:Jost;-inkscape-font-specification:'Jost, Normal';font-variant-ligatures:normal;font-variant-caps:normal;font-variant-numeric:normal;font-variant-east-asian:normal;fill:#ffdb58;fill-opacity:1;stroke:none;stroke-width:0.176;stroke-dasharray:none"
         x="99.55941"
         y="424.33725">ENGENHARIA CIVIL</tspan></text><path
       id="path3536-1-1-5-3-4"
       style="fill:#ffdb58;fill-opacity:1;stroke-width:0.252716"
       d="m 88.888583,336.93347 c -9.5054,-0.004 -10.8625,0.0453 -11.2045,0.40153 -0.3493,0.36405 -0.3891,3.6197 -0.3891,31.98203 v 31.32211 h 2.2283 v -0.90537 -1.16065 h 4.7051 4.7047 v -1.16065 -1.16065 h -4.7047 -4.7051 v -2.19264 -2.19211 h 4.7051 4.7047 v -1.03198 -1.03146 h -4.7047 -4.7051 v -2.19263 -2.19211 h 4.7051 4.7047 v -1.16066 -1.16065 h -4.7047 -4.7051 v -2.19211 -2.19264 h 4.7051 4.7047 v -1.03146 -1.03198 h -4.7047 -4.7051 v -2.3213 -2.32131 h 4.7051 4.7047 v -1.03146 -1.03146 h -4.7047 -4.7051 v -2.19263 -2.19211 h 4.7051 4.7047 v -1.16066 -1.16065 h -4.7047 -4.7051 v -2.19263 -2.19211 h 4.7051 4.7047 v -1.03198 -1.03146 h -4.7047 -4.7051 v -2.19212 -2.19263 h 4.7051 4.7047 v -1.16065 -1.16065 h -4.7047 -4.7051 v -2.19212 -2.19263 h 4.7051 4.7047 v -1.03146 -1.03146 h -4.7047 -4.7051 v -2.32131 -2.3213 h 9.4098 9.4092 v 30.95056 30.69528 h 2.228307 v -0.90537 -1.16065 h 3.7285 3.72839 l -0.076,-1.09606 -0.076,-1.09657 -3.6525,-0.0713 -3.6525,-0.0713 v -2.1854 -2.1854 h 3.71449 3.714 v -1.03198 -1.03146 h -3.714 -3.71449 v -2.19211 -2.19263 h 3.71449 3.714 v -1.16066 -1.16065 h -3.714 -3.71449 v -2.19211 -2.19264 h 3.71449 3.714 v -1.03146 -1.03198 h -3.714 -3.71449 v -2.3213 -2.32079 h 3.71449 3.714 v -1.03198 -1.03146 h -3.714 -3.71449 v -2.19263 -2.19211 h 3.7285 3.72839 l -0.076,-1.09606 -0.076,-1.09657 -3.6525,-0.0713 -3.65191,-0.0713 v -2.1854 -2.1854 h 3.714 3.71451 v -1.03197 -1.03147 h -3.71451 -3.714 v -2.04328 -2.0438 l 1.6712,0.49454 c 0.91921,0.27183 3.73291,1.10844 6.25231,1.85932 l 4.5806,1.36529 0.064,22.23637 0.062,21.98108 h 2.2262 v -0.90537 -1.16065 h 1.4857 1.48569 v -1.16065 -1.16066 h -1.48569 -1.4857 v -2.19264 -2.19211 h 1.4857 1.48569 v -1.03198 -1.03146 h -1.48569 -1.4857 v -2.19263 -2.19211 h 1.4857 1.48569 v -1.16066 -1.16065 h -1.48569 -1.4857 v -2.19211 -2.19264 h 1.4857 1.48569 v -1.03146 -1.03198 h -1.48569 -1.4857 v -2.3213 -2.32131 h 1.4857 1.48569 v -1.03146 -1.03146 h -1.48569 -1.4857 v -2.96519 -2.96468 l 3.0955,1.6061 3.0949,1.60559 v 16.83412 16.57934 h 2.2288 v -16.91373 c 0,-9.84063 -0.096,-17.35407 -0.2259,-17.60306 -0.124,-0.23893 -2.0184,-1.36001 -4.20951,-2.49132 l -3.98379,-2.05724 v -2.98741 c 0,-2.12081 -0.098,-3.128 -0.3384,-3.47059 -0.2383,-0.33934 -2.4252,-1.10302 -7.3665,-2.57245 l -7.02801,-2.0898 -0.12399,-6.51381 c -0.10291,-5.41129 -0.1865,-6.55486 -0.4951,-6.75773 -0.218797,-0.14388 -4.815207,-0.24656 -11.186907,-0.24856 z" /><rect
       style="fill:#ffdb58;fill-opacity:1;stroke:none;stroke-width:1.23297;stroke-dasharray:none"
       id="rect3590-7-4-0-5-7-4"
       width="54.815712"
       height="0.41339788"
       x="72.28109"
       y="418.10602" /></g></svg>
