<?xml version="1.0" encoding="UTF-8" standalone="no"?>
<!-- Created with Inkscape (http://www.inkscape.org/) -->

<svg
   width="210mm"
   height="297mm"
   viewBox="0 0 210 297"
   version="1.1"
   id="svg5"
   xml:space="preserve"
   inkscape:version="1.2 (1:1.2.1+202207142221+cd75a1ee6d)"
   sodipodi:docname="logo-v2.svg"
   xmlns:inkscape="http://www.inkscape.org/namespaces/inkscape"
   xmlns:sodipodi="http://sodipodi.sourceforge.net/DTD/sodipodi-0.dtd"
   xmlns="http://www.w3.org/2000/svg"
   xmlns:svg="http://www.w3.org/2000/svg"><sodipodi:namedview
     id="namedview7"
     pagecolor="#505050"
     bordercolor="#eeeeee"
     borderopacity="1"
     inkscape:showpageshadow="0"
     inkscape:pageopacity="0"
     inkscape:pagecheckerboard="0"
     inkscape:deskcolor="#505050"
     inkscape:document-units="mm"
     showgrid="false"
     showguides="true"
     inkscape:zoom="0.49449362"
     inkscape:cx="350.86398"
     inkscape:cy="204.24935"
     inkscape:window-width="1920"
     inkscape:window-height="951"
     inkscape:window-x="0"
     inkscape:window-y="27"
     inkscape:window-maximized="1"
     inkscape:current-layer="layer1"><sodipodi:guide
       position="47.198407,174.03822"
       orientation="1,0"
       id="guide6961"
       inkscape:locked="false" /></sodipodi:namedview><defs
     id="defs2" /><g
     inkscape:label="Camada 1"
     inkscape:groupmode="layer"
     id="layer1"><path
       id="path370"
       style="font-variation-settings:'wght' 100;fill:none;stroke:#212529;stroke-width:0.895;stroke-miterlimit:0;stroke-dasharray:none;stroke-opacity:1"
       d="m 31.154689,158.31552 a 21.10268,21.102682 0 0 1 -5.081055,-13.7343 21.10268,21.102682 0 0 1 21.10268,-21.10268 21.10268,21.102682 0 0 1 21.10268,21.10268 v 0 a 21.10268,21.102682 0 0 1 -5.081055,13.7343" /><path
       id="path6949"
       style="fill:#212529;fill-opacity:1;stroke-width:0.117449"
       d="m 36.893024,129.69251 -0.14085,0.14108 -0.141076,0.14084 v 14.36413 14.22122 h 1.057042 v -0.32711 -0.4698 h 2.231536 2.231535 v -0.52853 -0.52851 H 39.899676 37.66814 v -0.99832 -0.99831 h 2.231536 2.231535 v -0.4698 -0.46981 H 39.899676 37.66814 v -0.99831 -0.99832 h 2.231536 2.231535 v -0.52852 -0.52852 H 39.899676 37.66814 v -0.99832 -0.99832 h 2.231536 2.231535 v -0.52853 -0.52852 H 39.899676 37.66814 v -0.9396 -0.93958 h 2.231536 2.231535 v -0.52852 -0.52852 H 39.899676 37.66814 v -0.99832 -0.99832 h 2.231536 2.231535 v -0.52852 -0.52853 H 39.899676 37.66814 v -0.99832 -0.99832 h 2.231536 2.231535 v -0.46979 -0.4698 H 39.899676 37.66814 v -0.99832 -0.99831 h 2.231536 2.231535 v -0.52852 -0.52852 H 39.899676 37.66814 v -0.99832 -0.99832 h 2.231536 2.231535 v -0.52853 -0.52851 H 39.899676 37.66814 v -0.9396 -0.9396 h 4.463071 4.463071 v 13.97647 13.83377 h 1.057043 v -0.32711 -0.4698 h 1.761738 1.761739 v -0.52853 -0.52851 h -1.761739 -1.761738 v -0.99832 -0.99831 h 1.761738 1.761739 v -0.4698 -0.46981 h -1.761739 -1.761738 v -0.99831 -0.99832 h 1.761738 1.761739 v -0.52852 -0.52852 h -1.761739 -1.761738 v -0.99832 -0.99832 h 1.76862 1.768391 l -0.03602,-0.49916 -0.03625,-0.49916 -1.732375,-0.0324 -1.732376,-0.0325 v -0.93638 -0.93661 h 1.761737 1.761739 v -0.52852 -0.52853 h -1.761739 -1.761737 v -0.99831 -0.99832 h 1.761737 1.761739 v -0.52852 -0.52853 h -1.761739 -1.761737 v -0.99832 -0.99831 h 1.761737 1.761739 v -0.4698 -0.4698 h -1.761739 -1.761737 v -0.92353 -0.92354 l 2.965592,0.84807 2.965593,0.84807 0.03004,10.05865 0.0296,9.91597 h 1.056124 v -0.32689 -0.46979 h 0.770301 0.770073 l -0.03602,-0.49916 -0.03625,-0.49916 -0.734058,-0.035 -0.734058,-0.0349 v -0.99281 -0.99259 h 0.763421 0.76342 v -0.4698 -0.4698 h -0.763418 -0.763421 v -0.99281 -0.99258 l 0.734058,-0.035 0.734058,-0.0349 v -0.46979 -0.4698 l -0.734058,-0.035 -0.734058,-0.0349 v -0.99281 -0.99258 h 0.770303 0.770071 l -0.03601,-0.49916 -0.03625,-0.49916 -0.734058,-0.035 -0.734059,-0.0348 v -0.92857 -0.92834 l 0.734059,-0.0349 0.734058,-0.035 0.03625,-0.49916 0.03601,-0.49916 h -0.770071 -0.770303 v -1.29194 -1.29196 h 0.06057 0.06057 l 1.407555,0.70563 1.407556,0.70562 v 7.57455 7.43187 h 1.057272 v -7.61654 -7.75945 l -0.106897,-0.19773 -0.107128,-0.19797 -1.889511,-0.9366 -1.88974,-0.93661 v -1.42362 -1.42338 l -0.205535,-0.18123 -0.205537,-0.18098 -3.288577,-0.93547 -3.288578,-0.93523 -0.03143,-2.91491 -0.03143,-2.9149 -0.129837,-0.15621 -0.129607,-0.15644 h -5.24759 z m 24.049331,26.33157 c -5.76e-4,8.8e-4 -0.0013,9.6e-4 -0.0018,0.004 -2.54e-4,9.6e-4 -6.23e-4,0.004 -9.34e-4,0.006 l 0.0018,9.6e-4 c 3.44e-4,-0.004 5.78e-4,-0.006 9.32e-4,-0.01 z" /><text
       xml:space="preserve"
       style="font-style:normal;font-variant:normal;font-weight:normal;font-stretch:normal;font-size:5.64444px;font-family:Jost;-inkscape-font-specification:'Jost, @wght=300';font-variant-ligatures:normal;font-variant-caps:normal;font-variant-numeric:normal;font-variant-east-asian:normal;font-variation-settings:'wght' 300;text-align:center;direction:rtl;text-anchor:middle;fill:#212529;fill-opacity:1;stroke:#212529;stroke-width:0.25;stroke-miterlimit:0;stroke-dasharray:none;stroke-opacity:1"
       x="47.121708"
       y="165.36214"
       id="text7017"><tspan
         sodipodi:role="line"
         id="tspan7015"
         style="font-style:normal;font-variant:normal;font-weight:normal;font-stretch:normal;font-size:5.29167px;font-family:Jost;-inkscape-font-specification:'Jost, @wght=200';font-variant-ligatures:normal;font-variant-caps:normal;font-variant-numeric:normal;font-variant-east-asian:normal;font-variation-settings:'wght' 200;stroke-width:0.25"
         x="47.121708"
         y="165.36214">PEDRO DENARI</tspan></text><text
       xml:space="preserve"
       style="font-style:normal;font-variant:normal;font-weight:normal;font-stretch:normal;font-size:2.46944px;font-family:Jost;-inkscape-font-specification:'Jost, @wght=200';font-variant-ligatures:normal;font-variant-caps:normal;font-variant-numeric:normal;font-variant-east-asian:normal;font-variation-settings:'wght' 200;text-align:center;direction:rtl;text-anchor:middle;fill:#212529;fill-opacity:1;stroke:#212529;stroke-width:0.25;stroke-miterlimit:0;stroke-dasharray:none;stroke-opacity:1"
       x="47.11657"
       y="169.44664"
       id="text7017-2"><tspan
         sodipodi:role="line"
         id="tspan7015-6"
         style="font-style:normal;font-variant:normal;font-weight:normal;font-stretch:normal;font-size:2.46944px;font-family:Jost;-inkscape-font-specification:'Jost, @wght=200';font-variant-ligatures:normal;font-variant-caps:normal;font-variant-numeric:normal;font-variant-east-asian:normal;font-variation-settings:'wght' 200;stroke-width:0.25"
         x="47.11657"
         y="169.44664">ENGENHARIA CIVIL</tspan></text><path
       style="fill:#212529;fill-opacity:1;stroke:#212529;stroke-width:0.155627;stroke-miterlimit:0;stroke-dasharray:none;stroke-opacity:1"
       d="m 34.00848,166.5815 26.340257,-0.0146"
       id="path7132" /></g></svg>
